<svg width="24" height="24" viewBox="0 0 24 24" fill="none" xmlns="http://www.w3.org/2000/svg">
<g clip-path="url(#clip0_8290_304528)">
<mask id="mask0_8290_304528" style="mask-type:luminance" maskUnits="userSpaceOnUse" x="2" y="2" width="20" height="20">
<path d="M21.6307 10.1818H12.3125V14.0455H17.6761C17.1761 16.5 15.0852 17.9091 12.3125 17.9091C9.03978 17.9091 6.40341 15.2727 6.40341 12C6.40341 8.72727 9.03978 6.09091 12.3125 6.09091C13.7216 6.09091 14.9943 6.59091 15.9943 7.40909L18.9034 4.5C17.1307 2.95455 14.858 2 12.3125 2C6.76705 2 2.3125 6.45455 2.3125 12C2.3125 17.5455 6.76705 22 12.3125 22C17.3125 22 21.858 18.3636 21.858 12C21.858 11.4091 21.7671 10.7727 21.6307 10.1818Z" fill="white"/>
</mask>
<g mask="url(#mask0_8290_304528)">
<path d="M1.40332 17.909V6.09082L9.1306 11.9999L1.40332 17.909Z" fill="#FBBC05"/>
</g>
<mask id="mask1_8290_304528" style="mask-type:luminance" maskUnits="userSpaceOnUse" x="2" y="2" width="20" height="20">
<path d="M21.6307 10.1818H12.3125V14.0455H17.6761C17.1761 16.5 15.0852 17.9091 12.3125 17.9091C9.03978 17.9091 6.40341 15.2727 6.40341 12C6.40341 8.72727 9.03978 6.09091 12.3125 6.09091C13.7216 6.09091 14.9943 6.59091 15.9943 7.40909L18.9034 4.5C17.1307 2.95455 14.858 2 12.3125 2C6.76705 2 2.3125 6.45455 2.3125 12C2.3125 17.5455 6.76705 22 12.3125 22C17.3125 22 21.858 18.3636 21.858 12C21.858 11.4091 21.7671 10.7727 21.6307 10.1818Z" fill="white"/>
</mask>
<g mask="url(#mask1_8290_304528)">
<path d="M1.40332 6.09082L9.1306 11.9999L12.3124 9.22719L23.2215 7.45446V1.09082H1.40332V6.09082Z" fill="#EA4335"/>
</g>
<mask id="mask2_8290_304528" style="mask-type:luminance" maskUnits="userSpaceOnUse" x="2" y="2" width="20" height="20">
<path d="M21.6307 10.1818H12.3125V14.0455H17.6761C17.1761 16.5 15.0852 17.9091 12.3125 17.9091C9.03978 17.9091 6.40341 15.2727 6.40341 12C6.40341 8.72727 9.03978 6.09091 12.3125 6.09091C13.7216 6.09091 14.9943 6.59091 15.9943 7.40909L18.9034 4.5C17.1307 2.95455 14.858 2 12.3125 2C6.76705 2 2.3125 6.45455 2.3125 12C2.3125 17.5455 6.76705 22 12.3125 22C17.3125 22 21.858 18.3636 21.858 12C21.858 11.4091 21.7671 10.7727 21.6307 10.1818Z" fill="white"/>
</mask>
<g mask="url(#mask2_8290_304528)">
<path d="M1.40332 17.909L15.0397 7.45446L18.6306 7.909L23.2215 1.09082V22.909H1.40332V17.909Z" fill="#34A853"/>
</g>
<mask id="mask3_8290_304528" style="mask-type:luminance" maskUnits="userSpaceOnUse" x="2" y="2" width="20" height="20">
<path d="M21.6307 10.1818H12.3125V14.0455H17.6761C17.1761 16.5 15.0852 17.9091 12.3125 17.9091C9.03978 17.9091 6.40341 15.2727 6.40341 12C6.40341 8.72727 9.03978 6.09091 12.3125 6.09091C13.7216 6.09091 14.9943 6.59091 15.9943 7.40909L18.9034 4.5C17.1307 2.95455 14.858 2 12.3125 2C6.76705 2 2.3125 6.45455 2.3125 12C2.3125 17.5455 6.76705 22 12.3125 22C17.3125 22 21.858 18.3636 21.858 12C21.858 11.4091 21.7671 10.7727 21.6307 10.1818Z" fill="white"/>
</mask>
<g mask="url(#mask3_8290_304528)">
<path d="M23.2216 22.909L9.13068 11.9999L7.3125 10.6363L23.2216 6.09082V22.909Z" fill="#4285F4"/>
</g>
</g>
<defs>
<clipPath id="clip0_8290_304528">
<rect width="20" height="20" fill="white" transform="translate(2 2)"/>
</clipPath>
</defs>
</svg>
