<svg width="24" height="24" viewBox="0 0 24 24" fill="none" xmlns="http://www.w3.org/2000/svg">
<g clip-path="url(#clip0_8065_122574)">
<path d="M20.5682 10.1842C20.7909 9.51072 20.8677 8.79756 20.7936 8.0921C20.7194 7.38664 20.496 6.70503 20.1382 6.09254C19.6062 5.16738 18.7942 4.43493 17.8193 4.00064C16.8444 3.56636 15.7569 3.45264 14.7132 3.67588C14.1205 3.01644 13.3646 2.52455 12.5216 2.2496C11.6786 1.97465 10.7781 1.92633 9.91054 2.10947C9.04295 2.29261 8.23882 2.70078 7.57887 3.29299C6.91892 3.8852 6.42639 4.64061 6.15073 5.48338C5.4557 5.62669 4.79914 5.91632 4.2247 6.333C3.65025 6.74968 3.17109 7.28386 2.81906 7.90004C2.28203 8.82419 2.05259 9.89509 2.16388 10.9581C2.27518 12.0212 2.72144 13.0213 3.43823 13.8142C3.21362 14.4873 3.13534 15.2006 3.20864 15.9064C3.28193 16.6121 3.5051 17.2941 3.86323 17.9067C4.39553 18.8327 5.20814 19.5657 6.18389 20C7.15965 20.4343 8.24813 20.5476 9.29239 20.3234C9.76391 20.8534 10.3428 21.2771 10.9907 21.5661C11.6385 21.8552 12.3405 22.0031 13.0499 22C14.1195 22.0005 15.1616 21.6613 16.0261 21.0314C16.8905 20.4015 17.5327 19.5134 17.8599 18.495C18.5548 18.3516 19.2112 18.0619 19.7855 17.6453C20.3598 17.2286 20.8388 16.6945 21.1907 16.0784C21.7214 15.1557 21.9469 14.0889 21.8351 13.0304C21.7233 11.9718 21.2799 10.9757 20.5682 10.1842ZM13.0499 20.6917C12.1741 20.6929 11.3257 20.3861 10.6532 19.825L10.7707 19.7575L14.7532 17.4592C14.8519 17.4007 14.9338 17.3177 14.991 17.2183C15.0483 17.1189 15.0789 17.0064 15.0799 16.8917V11.2775L16.7632 12.2509C16.7716 12.255 16.7788 12.2611 16.7843 12.2687C16.7898 12.2762 16.7935 12.285 16.7949 12.2942V16.9467C16.7927 17.9393 16.3974 18.8905 15.6956 19.5924C14.9937 20.2942 14.0425 20.6895 13.0499 20.6917ZM4.99989 17.2534C4.56031 16.4947 4.40243 15.6053 4.55406 14.7417L4.67239 14.8125L8.65823 17.1117C8.75675 17.1696 8.86895 17.2001 8.98323 17.2001C9.0975 17.2001 9.2097 17.1696 9.30823 17.1117L14.1774 14.3042V16.2475C14.177 16.2577 14.1744 16.2676 14.1696 16.2766C14.1649 16.2855 14.1581 16.2933 14.1499 16.2992L10.1166 18.625C9.25589 19.1205 8.23383 19.2544 7.2746 18.9972C6.31536 18.7401 5.49731 18.1129 4.99989 17.2534ZM3.94989 8.58004C4.3932 7.81708 5.09136 7.23489 5.92156 6.93588V11.6667C5.92031 11.781 5.94962 11.8936 6.00647 11.9928C6.06332 12.092 6.14563 12.1742 6.24489 12.2309L11.0907 15.0259L9.40739 15.9992C9.3982 16.0038 9.38807 16.0061 9.37781 16.0061C9.36755 16.0061 9.35742 16.0038 9.34823 15.9992L5.32323 13.6775C4.46384 13.1798 3.83676 12.3617 3.57935 11.4025C3.32194 10.4433 3.45519 9.4212 3.94989 8.56004V8.58004ZM17.7807 11.7925L12.9199 8.97004L14.5991 8.00004C14.6083 7.99549 14.6184 7.99312 14.6286 7.99312C14.6389 7.99312 14.649 7.99549 14.6582 8.00004L18.6832 10.3259C19.299 10.6808 19.8011 11.2037 20.1308 11.8333C20.4604 12.463 20.6041 13.1735 20.5451 13.8817C20.486 14.59 20.2266 15.2669 19.7971 15.8332C19.3677 16.3996 18.786 16.832 18.1199 17.08V12.3484C18.1164 12.2343 18.0833 12.123 18.0238 12.0256C17.9644 11.9281 17.8806 11.8478 17.7807 11.7925ZM19.4557 9.27338L19.3382 9.20254L15.3599 6.88421C15.2606 6.82639 15.1477 6.79592 15.0328 6.79592C14.9179 6.79592 14.805 6.82639 14.7057 6.88421L9.84073 9.69171V7.74754C9.84005 7.73779 9.84183 7.72803 9.8459 7.71915C9.84998 7.71027 9.85622 7.70255 9.86406 7.69671L13.8891 5.37421C14.506 5.01915 15.2113 4.84702 15.9225 4.87794C16.6336 4.90886 17.3213 5.14155 17.9051 5.54882C18.4889 5.95609 18.9447 6.52112 19.2193 7.17786C19.4939 7.8346 19.5759 8.55593 19.4557 9.25754V9.27338ZM8.92239 12.7192L7.23906 11.7492C7.23059 11.7441 7.22336 11.7372 7.21788 11.729C7.21241 11.7208 7.20882 11.7115 7.20739 11.7017V7.06254C7.20879 6.35096 7.41262 5.65446 7.79508 5.05439C8.17754 4.45432 8.72283 3.97546 9.36728 3.67373C10.0117 3.37199 10.7287 3.25985 11.4345 3.35039C12.1403 3.44093 12.8058 3.73042 13.3532 4.18504L13.2349 4.25171L9.25323 6.55004C9.1544 6.60844 9.07232 6.69136 9.01495 6.79078C8.95757 6.89021 8.92684 7.00276 8.92573 7.11754L8.92239 12.7192ZM9.83656 10.7484L12.0049 9.49838L14.1774 10.7484V13.2475L12.0132 14.4975L9.84073 13.2475L9.83656 10.7484Z" fill="black"/>
</g>
<defs>
<clipPath id="clip0_8065_122574">
<rect width="20" height="20" fill="white" transform="translate(2 2)"/>
</clipPath>
</defs>
</svg>
