<svg width="682" height="681" viewBox="0 0 682 681" fill="none" xmlns="http://www.w3.org/2000/svg">
<path d="M2.54414 294.733C3.38414 324.653 0.254138 355.013 4.17414 384.503C8.73414 404.243 46.4441 394.843 61.4841 393.923C122.154 384.513 175.314 341.013 196.394 283.563C215.524 230.283 205.044 172.823 206.754 117.113C206.834 98.0128 206.614 79.2828 207.024 60.1128C205.964 40.3628 215.394 4.9828 187.644 1.5328C129.534 -3.2572 62.5541 0.802803 24.3041 50.2128C-1.27586 80.9028 0.764138 121.633 1.20414 159.433V159.633L2.53414 294.743L2.54414 294.733Z" fill="#232323"/>
<path d="M2.06297 458.712C2.19297 504.502 5.86297 548.632 32.363 587.782C43.043 604.392 56.003 620.182 71.563 632.382C88.453 645.442 108.613 655.602 128.183 663.952C151.213 673.482 175.993 677.722 200.623 678.992C226.423 680.472 254.223 680.712 280.813 679.792C326.093 678.832 365.973 671.192 397.793 636.862C414.763 618.542 428.703 597.172 432.603 572.002C438.133 539.992 430.293 509.562 412.093 482.822C395.133 458.052 368.063 440.032 339.833 430.152C330.573 427.082 318.293 424.792 309.353 424.182C276.263 423.742 147.793 424.222 66.923 424.022C52.433 424.012 38.963 424.022 24.933 424.022C20.423 424.272 15.733 423.352 11.923 424.962C1.48297 430.792 2.01297 447.882 2.07297 458.532V458.732L2.06297 458.712Z" fill="#232323"/>
<path d="M679.744 385.603C678.904 355.683 682.034 325.323 678.114 295.833C673.554 276.093 635.844 285.492 620.804 286.412C560.134 295.822 506.974 339.323 485.894 396.773C466.764 450.053 477.244 507.513 475.534 563.223C475.454 582.323 475.674 601.053 475.264 620.223C476.324 639.973 466.894 675.352 494.644 678.802C552.744 683.602 619.734 679.542 657.984 630.122C683.554 599.432 681.514 558.703 681.074 520.913V520.713L679.744 385.603Z" fill="#232323"/>
<path d="M680.215 221.622C680.085 175.832 676.415 131.702 649.915 92.5524C639.235 75.9424 626.275 60.1524 610.715 47.9524C593.825 34.8923 573.665 24.7324 554.095 16.3824C531.065 6.85235 506.285 2.61235 481.655 1.34235C455.855 -0.137648 428.055 -0.377648 401.465 0.542352C356.185 1.50235 316.305 9.14235 284.485 43.4724C267.515 61.7924 253.575 83.1624 249.675 108.332C244.145 140.342 251.985 170.772 270.185 197.512C287.145 222.282 314.215 240.302 342.445 250.182C351.705 253.252 363.985 255.542 372.925 256.152C406.015 256.592 534.485 256.112 615.355 256.312C629.845 256.322 643.315 256.312 657.345 256.312C661.855 256.062 666.545 256.982 670.355 255.372C680.795 249.542 680.265 232.452 680.205 221.802V221.602L680.215 221.622Z" fill="#232323"/>
</svg>
